#!OML:ASF Y:\EmotionMaleHayes\Project 1\Capture day 1\Session 1\Male1.ASF
:FULLY-SPECIFIED
:DEGREES
344
root 6.13625 17.5333 4.01742 75.3375 73.2762 72.0624
lowerback 15.9267 -3.05828 0.133213
upperback 9.95612 -3.35642 -4.10361
thorax 1.41338 -1.27028 -3.89873
lowerneck -17.8378 -3.76532 -4.01061
upperneck 32.6568 -4.82995 4.14447
head 14.4269 -1.73694 1.60762
rclavicle 2.06736e-014 -3.10104e-014
rhumerus -54.689 37.8536 -91.0947
rradius 81.2568
rwrist -23.5195
rhand 12.59 -40.2784
rfingers 7.12502
rthumb 37.5786 -66.1911
lclavicle 2.06736e-014 -3.10104e-014
lhumerus -20.9158 -2.61138 66.0493
lradius 40.1984
lwrist 10.1407
lhand -26.2002 -19.2201
lfingers 7.12502
lthumb 0.352365 10.7594
rfemur -8.77855 -0.66142 3.69605
rtibia 21.4736
rfoot -18.4188 -9.09315
rtoes 11.2766
lfemur -7.69917 4.79034 -1.58077
ltibia 56.851
lfoot -2.68084 3.96383
ltoes 3.519
345
root 6.15467 17.545 4.02128 75.4775 73.0831 72.1843
lowerback 15.8846 -3.15683 -0.155927
upperback 9.56623 -3.57196 -3.89642
thorax 1.03081 -1.41963 -3.47325
lowerneck -17.4529 -3.36544 -4.21568
upperneck 32.0487 -4.3474 4.57113
head 14.0601 -1.51614 1.89195
rclavicle 7.15625e-015 6.44062e-014
rhumerus -54.8766 37.2692 -90.5458
rradius 81.1617
rwrist -23.6534
rhand 11.8638 -40.724
rfingers 7.12502
rthumb 36.8918 -66.8164
lclavicle 7.15625e-015 6.44062e-014
lhumerus -22.7831 -2.21064 66.5581
lradius 40.304
lwrist 9.648
lhand -26.6331 -19.3508
lfingers 7.12502
lthumb -0.0657391 10.6289
rfemur -8.4735 -0.630456 3.46704
rtibia 20.9751
rfoot -18.1167 -9.13078
rtoes 11.076
lfemur -7.9663 4.49679 -1.66419
ltibia 59.5974
lfoot -3.18973 4.0399
ltoes 3.34016
346
root 6.17347 17.5564 4.02502 75.3876 72.8439 72.0653
lowerback 15.5761 -3.13711 -0.366114
upperback 9.50804 -3.58074 -3.82203
thorax 1.14632 -1.4398 -3.28575
lowerneck -17.5862 -3.08821 -3.9293
upperneck 31.3424 -4.15613 4.85456
head 13.7678 -1.37849 1.97038
rclavicle 3.97569e-015 5.88403e-014
rhumerus -54.2297 36.1121 -89.7002
rradius 80.718
rwrist -23.4902
rhand 10.2672 -39.8045
rfingers 7.12502
rthumb 35.3797 -66.271
lclavicle 3.97569e-015 5.88403e-014
lhumerus -23.8982 -2.10515 66.9459
lradius 40.4038
lwrist 9.3434
lhand -26.9366 -19.561
lfingers 7.12502
lthumb -0.358874 10.4184
rfemur -8.2163 -0.494396 3.23778
rtibia 20.626
rfoot -17.9714 -9.05645
rtoes 11.1382
lfemur -8.19703 4.25046 -1.78675
ltibia 62.3684
lfoot -3.5061 3.95499
ltoes 2.34954
347
root 6.18899 17.5642 4.03156 74.5284 72.9088 71.1436
lowerback 15.6426 -3.00872 -0.212035
upperback 9.28893 -3.42275 -3.69291
thorax 0.883774 -1.37089 -3.2505
lowerneck -17.8435 -2.90858 -3.67192
upperneck 30.808 -4.12402 5.24848
head 13.5955 -1.29212 2.07329
rclavicle -9.54166e-015 3.97569e-015
rhumerus -53.7335 34.4766 -88.8975
rradius 80.3106
rwrist -22.9701
rhand 9.19265 -39.111
rfingers 7.12502
rthumb 34.3602 -65.8141
lclavicle -9.54166e-015 3.97569e-015
lhumerus -25.1867 -2.34192 67.3344
lradius 40.7075
lwrist 9.20496
lhand -27.103 -19.7608
lfingers 7.12502
lthumb -0.519525 10.2183
rfemur -7.98109 0.121281 3.52923
rtibia 20.1182
rfoot -17.9766 -9.14191
rtoes 12.3173
lfemur -8.438 4.23925 -1.44568
ltibia 65.2544
lfoot -3.52715 3.68169
ltoes 2.61214
348
root 6.20258 17.5689 4.04067 73.7938 73.067 70.347
lowerback 15.5801 -3.22527 -0.56264
upperback 8.76651 -3.81385 -3.09669
thorax 0.398463 -1.62294 -2.35427
lowerneck -16.8786 -2.31416 -4.4854
upperneck 30.0766 -3.14406 5.61859
head 13.0411 -0.937851 2.50517
rclavicle -2.3059e-014 -2.38542e-014
rhumerus -53.8429 34.5512 -88.0591
rradius 80.1537
rwrist -22.5358
rhand 8.83369 -39.4879
rfingers 7.12502
rthumb 34.0193 -66.2674
lclavicle -2.3059e-014 -2.38542e-014
lhumerus -27.8336 -1.02044 68.0572
lradius 41.1761
lwrist 8.93446
lhand -27.3382 -19.9336
lfingers 7.12502
lthumb -0.746736 10.0448
rfemur -7.71964 0.956786 3.95125
rtibia 19.4327
rfoot -18.0523 -9.33042
rtoes 14.6483
lfemur -8.7315 4.25953 -1.00094
ltibia 68.3004
lfoot -3.79686 3.01715
ltoes 3.59069
349
root 6.21493 17.572 4.04862 73.45 73.2464 69.9777
lowerback 15.2784 -3.15445 -0.274364
upperback 8.86985 -3.67643 -3.01928
thorax 0.658073 -1.54539 -2.47191
lowerneck -17.4809 -2.1545 -3.89371
upperneck 29.5415 -3.17334 5.82362
head 12.9419 -0.864085 2.46077
rclavicle 5.32743e-014 1.66979e-014
rhumerus -52.717 32.5299 -87.012
rradius 79.85
rwrist -21.9535
rhand 7.91539 -39.9059
rfingers 7.12502
rthumb 33.1466 -66.8751
lclavicle 5.32743e-014 1.66979e-014
lhumerus -28.5027 -1.40601 68.3901
lradius 41.38
lwrist 9.19294
lhand -27.7786 -19.9795
lfingers 7.12502
lthumb -1.17209 9.99699
rfemur -7.50963 1.64622 4.35566
rtibia 19.0641
rfoot -18.2296 -9.44121
rtoes 16.8426
lfemur -9.02574 4.18508 -0.585799
ltibia 71.4128
lfoot -4.22954 2.00394
ltoes 4.72105
